<?xml version="1.0" encoding="UTF-8" standalone="no"?><!DOCTYPE svg PUBLIC "-//W3C//DTD SVG 1.1//EN" "http://www.w3.org/Graphics/SVG/1.1/DTD/svg11.dtd"><svg width="100%" height="100%" viewBox="0 0 890 216" version="1.1" xmlns="http://www.w3.org/2000/svg" xmlns:xlink="http://www.w3.org/1999/xlink" xml:space="preserve" xmlns:serif="http://www.serif.com/" style="fill-rule:evenodd;clip-rule:evenodd;stroke-linejoin:round;stroke-miterlimit:2;"><rect id="Artboard1" x="0" y="0" width="889.119" height="215.558" style="fill:none;"/><path d="M62.825,12.801l0,52.99l34.397,0l0,15.339l-34.397,0l0,89.401c0,8.367 0.387,13.764 1.162,16.191c0.775,2.427 2.143,4.39 4.106,5.888c1.963,1.498 3.77,2.247 5.423,2.247c6.714,0 13.067,-5.113 19.058,-15.339l4.648,3.409c-8.367,19.832 -21.95,29.749 -40.749,29.749c-9.193,0 -16.966,-2.557 -23.319,-7.67c-6.353,-5.113 -10.407,-10.82 -12.163,-17.121c-1.033,-3.512 -1.549,-13.015 -1.549,-28.509l0,-78.245l-18.903,0l0,-5.423c13.015,-9.193 24.093,-18.851 33.235,-28.974c9.141,-10.123 17.121,-21.433 23.938,-33.932l5.113,0Zm101.928,48.651c12.602,0 24.326,3.254 35.171,9.761c10.846,6.507 19.083,15.752 24.713,27.734c5.629,11.982 8.444,25.1 8.444,39.355c0,20.555 -5.216,37.754 -15.649,51.595c-12.602,16.734 -30.007,25.1 -52.215,25.1c-21.795,0 -38.58,-7.644 -50.356,-22.931c-11.775,-15.287 -17.663,-33.002 -17.663,-53.145c0,-20.762 6.017,-38.864 18.051,-54.307c12.034,-15.442 28.535,-23.164 49.503,-23.164Zm0.62,11.001c-5.268,0 -9.787,1.988 -13.557,5.965c-3.77,3.977 -6.249,11.827 -7.437,23.551c-1.188,11.724 -1.782,28.018 -1.782,48.884c0,11.052 0.723,21.382 2.169,30.988c1.136,7.334 3.564,12.912 7.282,16.734c3.719,3.822 7.954,5.733 12.705,5.733c4.648,0 8.522,-1.291 11.621,-3.874c4.028,-3.512 6.714,-8.418 8.057,-14.719c2.066,-9.813 3.099,-29.645 3.099,-59.497c0,-17.56 -0.981,-29.619 -2.944,-36.179c-1.963,-6.559 -4.855,-11.336 -8.677,-14.332c-2.686,-2.169 -6.198,-3.254 -10.536,-3.254Zm130.213,-59.652l0,52.99l34.397,0l0,15.339l-34.397,0l0,89.401c0,8.367 0.387,13.764 1.162,16.191c0.775,2.427 2.143,4.39 4.106,5.888c1.963,1.498 3.77,2.247 5.423,2.247c6.714,0 13.067,-5.113 19.058,-15.339l4.648,3.409c-8.367,19.832 -21.95,29.749 -40.749,29.749c-9.193,0 -16.966,-2.557 -23.319,-7.67c-6.353,-5.113 -10.407,-10.82 -12.163,-17.121c-1.033,-3.512 -1.549,-13.015 -1.549,-28.509l0,-78.245l-18.903,0l0,-5.423c13.015,-9.193 24.093,-18.851 33.235,-28.974c9.141,-10.123 17.121,-21.433 23.938,-33.932l5.113,0Zm101.951,48.651c12.602,0 24.326,3.254 35.171,9.761c10.846,6.507 19.083,15.752 24.713,27.734c5.629,11.982 8.444,25.1 8.444,39.355c0,20.555 -5.216,37.754 -15.649,51.595c-12.602,16.734 -30.007,25.1 -52.215,25.1c-21.795,0 -38.58,-7.644 -50.356,-22.931c-11.775,-15.287 -17.663,-33.002 -17.663,-53.145c0,-20.762 6.017,-38.864 18.051,-54.307c12.034,-15.442 28.535,-23.164 49.503,-23.164Zm0.62,11.001c-5.268,0 -9.787,1.988 -13.557,5.965c-3.77,3.977 -6.249,11.827 -7.437,23.551c-1.188,11.724 -1.782,28.018 -1.782,48.884c0,11.052 0.723,21.382 2.169,30.988c1.136,7.334 3.564,12.912 7.282,16.734c3.719,3.822 7.954,5.733 12.705,5.733c4.648,0 8.522,-1.291 11.621,-3.874c4.028,-3.512 6.714,-8.418 8.057,-14.719c2.066,-9.813 3.099,-29.645 3.099,-59.497c0,-17.56 -0.981,-29.619 -2.944,-36.179c-1.963,-6.559 -4.855,-11.336 -8.677,-14.332c-2.686,-2.169 -6.198,-3.254 -10.536,-3.254Zm128.495,-71.892l0,180.041c0,10.226 1.188,16.759 3.564,19.6c2.376,2.841 7.024,4.467 13.945,4.881l0,5.578l-78.245,0l0,-5.578c6.404,-0.207 11.156,-2.066 14.255,-5.578c2.066,-2.376 3.099,-8.677 3.099,-18.903l0,-149.982c0,-10.123 -1.188,-16.604 -3.564,-19.445c-2.376,-2.841 -6.972,-4.467 -13.79,-4.881l0,-5.733l60.737,0Zm94.422,188.717c-17.663,15.597 -33.519,23.396 -47.567,23.396c-8.263,0 -15.132,-2.711 -20.607,-8.134c-5.475,-5.423 -8.212,-12.214 -8.212,-20.375c0,-11.052 4.752,-20.994 14.255,-29.826c9.503,-8.832 30.213,-20.581 62.131,-35.249l0,-14.564c0,-10.949 -0.594,-17.844 -1.782,-20.685c-1.188,-2.841 -3.435,-5.32 -6.74,-7.437c-3.305,-2.118 -7.024,-3.176 -11.156,-3.176c-6.714,0 -12.24,1.498 -16.579,4.493c-2.686,1.859 -4.028,4.028 -4.028,6.507c0,2.169 1.446,4.855 4.338,8.057c3.925,4.442 5.888,8.728 5.888,12.86c0,5.061 -1.885,9.374 -5.655,12.938c-3.77,3.564 -8.702,5.345 -14.797,5.345c-6.507,0 -11.956,-1.963 -16.346,-5.888c-4.39,-3.925 -6.585,-8.522 -6.585,-13.79c0,-7.437 2.944,-14.539 8.832,-21.304c5.888,-6.766 14.1,-11.956 24.636,-15.571c10.536,-3.615 21.485,-5.423 32.847,-5.423c13.738,0 24.61,2.918 32.615,8.754c8.005,5.836 13.196,12.163 15.571,18.98c1.446,4.338 2.169,14.306 2.169,29.903l0,56.243c0,6.611 0.258,10.768 0.775,12.473c0.516,1.704 1.291,2.97 2.324,3.796c1.033,0.826 2.221,1.24 3.564,1.24c2.686,0 5.423,-1.911 8.212,-5.733l4.648,3.719c-5.165,7.644 -10.51,13.196 -16.036,16.656c-5.526,3.46 -11.801,5.19 -18.825,5.19c-8.263,0 -14.719,-1.937 -19.368,-5.81c-4.648,-3.874 -7.489,-9.735 -8.522,-17.586Zm0,-11.311l0,-48.496c-12.499,7.334 -21.795,15.184 -27.889,23.551c-4.028,5.578 -6.043,11.207 -6.043,16.888c0,4.752 1.704,8.935 5.113,12.55c2.582,2.789 6.198,4.183 10.846,4.183c5.165,0 11.156,-2.892 17.973,-8.677Zm195.925,37.031l-39.665,-106.289l-38.89,106.289l-8.057,0l-38.58,-105.05c-5.784,-16.01 -10.691,-26.443 -14.719,-31.298c-2.582,-3.305 -6.507,-5.681 -11.775,-7.127l0,-5.733l73.132,0l0,5.733c-4.958,0 -8.367,0.723 -10.226,2.169c-1.859,1.446 -2.789,3.099 -2.789,4.958c0,1.756 1.653,7.024 4.958,15.804l21.227,56.553l20.452,-56.553l-1.549,-3.719c-3.099,-7.747 -5.81,-12.679 -8.134,-14.797c-2.324,-2.118 -5.914,-3.589 -10.768,-4.416l0,-5.733l74.216,0l0,5.733c-5.784,0.31 -9.451,1.11 -11.001,2.402c-1.549,1.291 -2.324,3.125 -2.324,5.5c0,2.272 1.498,7.282 4.493,15.029l20.452,56.553l18.593,-52.06c2.686,-7.437 4.028,-12.499 4.028,-15.184c0,-4.028 -0.981,-6.972 -2.944,-8.832c-1.963,-1.859 -5.784,-2.996 -11.466,-3.409l0,-5.733l42.918,0l0,5.733c-4.752,0.62 -8.522,2.298 -11.311,5.036c-2.789,2.737 -6.404,10.51 -10.846,23.319l-40.594,115.121l-8.832,0Z" style="fill:#030712;"/></svg>